<svg xmlns="http://www.w3.org/2000/svg" style="display: none;">
  
    <symbol id="icon-circle" viewBox="0 0 512 512">
      <path d="m475 256c0 40-9 77-29 110-20 34-46 60-80 80-33 20-70 29-110 29-40 0-77-9-110-29-34-20-60-46-80-80-20-33-29-70-29-110 0-40 9-77 29-110 20-34 46-60 80-80 33-20 70-29 110-29 40 0 77 9 110 29 34 20 60 46 80 80 20 33 29 70 29 110z"/>
    </symbol>
  
    <symbol id="icon-linkedin-square" viewBox="0 0 512 512">
      <path d="m104 404l66 0 0-198-66 0z m71-259c-1-10-4-19-11-25-6-6-15-10-26-10-11 0-20 4-27 10-7 6-11 15-11 25 0 9 4 17 10 24 7 7 16 10 27 10l0 0c11 0 20-3 27-10 7-7 11-15 11-24z m167 259l66 0 0-114c0-29-7-51-21-66-14-15-32-23-55-23-26 0-46 11-60 34l1 0 0-29-66 0c0 12 0 78 0 198l66 0 0-111c0-7 0-12 2-16 2-7 7-12 12-17 6-5 13-7 22-7 22 0 33 15 33 45z m133-285l0 274c0 23-8 42-24 58-16 16-35 24-58 24l-274 0c-23 0-42-8-58-24-16-16-24-35-24-58l0-274c0-23 8-42 24-58 16-16 35-24 58-24l274 0c23 0 42 8 58 24 16 16 24 35 24 58z"/>
    </symbol>
  
    <symbol id="icon-github-square" viewBox="0 0 512 512">
      <path d="m149 386c-1 2-3 2-6-1-2-2-2-3-1-5 2-2 4-1 6 1 2 2 3 4 1 5z m-12-17c2 2 2 4 0 5-1 1-3 1-5-2-1-2-1-4 0-5 2-1 4-1 5 2z m-17-17c-1 1-2 1-4 0-2-1-3-2-2-3 1-1 2-1 4-1 2 1 2 2 2 4z m9 9c-2 2-3 1-5 0-2-3-2-4-1-5 2-1 3-1 5 1 2 2 2 3 1 4z m36 32c0 3-2 3-5 2-3-1-4-2-4-4 1-2 3-3 6-2 3 1 4 2 3 4z m18 2c0 2-1 3-4 3-3 0-5-1-5-3 0-2 2-3 5-3 3-1 4 0 4 3z m17-3c0 2-1 3-4 4-3 1-5 0-5-2-1-3 1-4 4-5 3 0 5 1 5 3z m275-273l0 274c0 23-8 42-24 58-16 16-35 24-58 24l-64 0c-3 0-5 0-7 0-1 0-3-1-5-1-3-1-4-2-5-4-1-2-1-5-1-8l0-69c0-18-5-32-15-40 11-1 20-3 29-5 9-3 18-6 27-11 9-6 17-12 23-19 6-8 11-18 15-30 4-13 6-27 6-43 0-23-8-43-23-59 7-18 7-37-2-59-5-1-13 0-23 4-10 3-19 8-26 12l-11 7c-18-5-36-7-55-7-19 0-37 2-55 7-3-2-7-5-12-8-5-3-13-6-24-11-11-4-19-5-24-4-9 22-9 41-2 59-15 16-23 36-23 59 0 16 2 30 6 42 4 13 9 23 15 30 6 8 14 14 23 20 9 5 18 8 27 11 8 2 18 4 29 5-8 7-12 17-14 29-4 2-8 4-13 5-4 1-10 1-16 1-6 0-13-2-19-6-6-4-11-10-16-18-3-6-8-11-14-15-5-4-10-6-14-7l-5-1c-4 0-7 1-9 2-1 1-2 2-1 3 0 1 1 3 2 4 2 1 3 2 4 3l2 2c4 2 8 5 13 11 4 5 7 10 9 14l2 7c3 7 7 13 13 17 6 5 12 8 19 9 7 1 14 2 20 2 6 0 12 0 16-1l6-1c0 7 0 17 1 29 0 13 0 19 0 20 0 4-1 7-3 9-3 2-5 4-7 4-2 0-5 0-9 0l-64 0c-23 0-42-8-58-24-16-16-24-35-24-58l0-274c0-23 8-42 24-58 16-16 35-24 58-24l274 0c23 0 42 8 58 24 16 16 24 35 24 58z"/>
    </symbol>
  
    <symbol id="icon-pied-piper" viewBox="0 0 512 512">
      <path d="m335 291c0 13-3 23-10 32-8 8-16 12-26 12-9 0-15-1-20-4l0-79c5-3 12-5 20-5 10 0 18 4 26 13 7 9 10 19 10 31z m-98-122c0 12-3 23-10 31-8 9-16 13-26 13-9 0-15-1-20-4l0-79c5-3 12-5 20-5 10 0 18 4 26 13 7 9 10 19 10 31z m161 123c0-25-8-47-25-65-17-18-37-27-61-27-4 0-8 0-11 1-5 14-12 27-22 38-17 19-37 28-61 29l0 182 61-12 0-59c9 4 20 6 33 6 24 0 44-9 61-27 17-18 25-40 25-66z m-98-122c0-25-8-47-25-65-17-18-37-27-61-27-14 0-28 3-41 10l-53 0 0 240 61-12 0-59c10 4 21 6 33 6 24 0 44-9 61-27 17-18 25-40 25-66z m175-51l0 274c0 23-8 42-24 58-16 16-35 24-58 24l-274 0c-23 0-42-8-58-24-16-16-24-35-24-58l0-274c0-23 8-42 24-58 16-16 35-24 58-24l274 0c23 0 42 8 58 24 16 16 24 35 24 58z"/>
    </symbol>
  
    <symbol id="icon-logo" viewBox="0 0 512 512">
      <path d="m184 359l129 0c22 0 43-4 63-13 20-9 38-21 53-36 15-15 26-33 35-54 9-22 14-44 14-69 0-28-8-56-23-81-15-26-35-46-61-61-25-15-52-22-81-22l-280 0 0 489-23 0 0-512 303 0c33 0 64 9 93 26 28 17 51 40 68 69 17 29 26 60 26 92 0 30-5 57-15 81-10 25-24 45-41 62-17 16-37 28-60 37-22 9-46 14-71 14l-129 0z m0-45l129 0c21 0 41-5 59-15 18-11 33-26 44-45 12-20 17-42 17-67 0-31-12-59-36-84-24-24-52-36-84-36l-236 0 0 445-22 0 0-467 258 0c25 0 48 6 70 20 22 13 40 30 53 53 13 22 19 45 19 70 0 28-6 53-19 76-13 23-31 41-53 53-22 13-45 19-70 19l-129 0z m0-44l129 0c21 0 39-7 54-22 14-14 22-34 22-60 0-20-8-37-23-53-16-16-33-23-53-23l-191 0 0 400-22 0 0-423 213 0c26 0 48 10 68 30 20 20 30 43 30 68 0 32-10 57-29 76-19 19-42 29-69 29l-129 0z m-18 242l-22 0 0-378 169 0c14 0 27 5 38 16 10 10 16 23 16 37 0 40-18 60-54 60l-129 0 0-22 129 0c10 0 17-3 23-8 5-6 8-15 8-29 0-9-3-17-9-23-6-6-13-9-22-9l-147 0z"/>
    </symbol>
  
    <symbol id="icon-envelope-square" viewBox="0 0 512 512">
      <path d="m393 37c23 0 42 8 58 24 16 16 24 35 24 58l0 274c0 23-8 42-24 58-16 16-35 24-58 24l-274 0c-23 0-42-8-58-24-16-16-24-35-24-58l0-274c0-23 8-42 24-58 16-16 35-24 58-24z m9 301l0-124c-6 6-12 12-18 15-6 5-19 13-38 25-19 12-33 21-43 28-19 13-34 20-47 20-13 0-28-7-47-20-9-6-22-15-40-26-18-12-32-21-41-27-2-1-5-4-9-8-4-3-7-6-9-7l0 124c0 8 2 14 8 20 5 5 12 8 19 8l238 0c7 0 14-3 19-8 6-6 8-12 8-20z m0-163c0-8-2-15-8-20-5-6-11-9-19-9l-238 0c-7 0-14 3-19 8-6 6-8 12-8 20 0 7 3 14 8 22 6 7 13 13 20 18 9 6 22 15 39 25 17 11 30 19 37 24 1 1 2 2 5 3 3 2 5 4 6 4 1 1 3 3 6 4 3 2 5 3 7 4 1 1 3 2 6 3 2 1 4 1 6 2 2 0 4 0 6 0 2 0 4 0 6 0 2-1 4-1 6-2 3-1 5-2 6-3 2-1 4-2 7-4 3-1 5-3 6-4 1 0 3-2 6-4 3-1 4-2 5-3l76-50c7-4 13-10 19-17 6-8 9-15 9-21z"/>
    </symbol>
  
    <symbol id="icon-chevron-down" viewBox="0 0 512 512">
      <path d="m481 231l-212 212c-4 3-8 5-13 5-5 0-9-2-13-5l-212-212c-3-4-5-8-5-13 0-5 2-10 5-13l48-47c3-4 7-6 12-6 5 0 10 2 13 6l152 151 152-151c3-4 8-6 13-6 5 0 9 2 12 6l48 47c3 3 5 8 5 13 0 5-2 9-5 13z"/>
    </symbol>
  
    <symbol id="icon-square" viewBox="0 0 512 512">
      <path d="m475 119l0 274c0 23-8 42-24 58-16 16-35 24-58 24l-274 0c-23 0-42-8-58-24-16-16-24-35-24-58l0-274c0-23 8-42 24-58 16-16 35-24 58-24l274 0c23 0 42 8 58 24 16 16 24 35 24 58z"/>
    </symbol>
  
    <symbol id="icon-file-text-o" viewBox="0 0 512 512">
      <path d="m456 109c5 5 10 12 14 21 4 9 5 18 5 25l0 330c0 7-2 14-8 19-5 5-11 8-19 8l-384 0c-8 0-14-3-19-8-6-5-8-12-8-19l0-458c0-7 2-14 8-19 5-5 11-8 19-8l256 0c8 0 16 2 25 6 9 4 17 8 22 13z m-127-70l0 107 108 0c-2-5-4-9-7-11l-89-90c-2-2-6-4-12-6z m110 436l0-292-119 0c-8 0-14-3-19-8-6-5-8-12-8-20l0-118-220 0 0 438z m-293-246c0-3 1-5 3-7 2-2 4-3 6-3l202 0c2 0 4 1 6 3 2 2 3 4 3 7l0 18c0 3-1 5-3 6-2 2-4 3-6 3l-202 0c-2 0-4-1-6-3-2-1-3-3-3-6z m211 64c2 0 4 0 6 2 2 2 3 4 3 7l0 18c0 3-1 5-3 7-2 1-4 2-6 2l-202 0c-2 0-4-1-6-2-2-2-3-4-3-7l0-18c0-3 1-5 3-7 2-2 4-2 6-2z m0 73c2 0 4 1 6 2 2 2 3 4 3 7l0 18c0 3-1 5-3 7-2 1-4 2-6 2l-202 0c-2 0-4-1-6-2-2-2-3-4-3-7l0-18c0-3 1-5 3-7 2-1 4-2 6-2z"/>
    </symbol>
  
</svg>
